<svg width="32" height="32" viewBox="0 0 32 32" fill="none" xmlns="http://www.w3.org/2000/svg">
<path d="M17.2343 27.5082L17.6467 28.4192L17.2343 27.5082ZM14.7652 27.5082L14.3528 28.4192L14.7652 27.5082ZM5.6239 5.45605L6.51491 5.91005L5.6239 5.45605ZM6.78898 4.29065L7.24297 5.18166L6.78898 4.29065ZM16.4517 27.7683L16.2825 26.7827L16.4517 27.7683ZM15.5491 27.7683L15.7183 26.7827L15.5491 27.7683ZM26.3762 5.45605L25.4852 5.91005V5.91005L26.3762 5.45605ZM25.2103 4.29065L25.6643 3.39964L25.6643 3.39964L25.2103 4.29065ZM20.707 12.7071C21.0975 12.3166 21.0975 11.6834 20.707 11.2929C20.3165 10.9024 19.6833 10.9024 19.2928 11.2929L20.707 12.7071ZM14.6666 17.3333L13.9595 18.0404C14.147 18.228 14.4014 18.3333 14.6666 18.3333C14.9318 18.3333 15.1862 18.228 15.3737 18.0404L14.6666 17.3333ZM12.707 13.9596C12.3165 13.569 11.6833 13.569 11.2928 13.9596C10.9023 14.3501 10.9023 14.9832 11.2928 15.3738L12.707 13.9596ZM25.6666 8.2666V13.5531H27.6666V8.2666H25.6666ZM25.6666 13.5531C25.6666 21.6981 19.5291 25.3718 16.8219 26.5972L17.6467 28.4192C20.5559 27.1024 27.6666 22.9234 27.6666 13.5531H25.6666ZM15.1775 26.5972C12.4704 25.3718 6.33325 21.6981 6.33325 13.5531H4.33325C4.33325 22.9234 11.4436 27.1024 14.3528 28.4192L15.1775 26.5972ZM6.33325 13.5531V8.2666H4.33325V13.5531H6.33325ZM9.60018 5H22.4002V3H9.60018V5ZM6.33325 8.2666C6.33325 7.50336 6.33403 6.9911 6.36626 6.59662C6.39754 6.21383 6.45338 6.0308 6.51491 5.91005L4.73289 5.00206C4.50377 5.45174 4.41429 5.92725 4.3729 6.43375C4.33247 6.92857 4.33325 7.53637 4.33325 8.2666H6.33325ZM9.60018 3C8.86993 3 8.26199 2.99922 7.76703 3.03965C7.26046 3.08103 6.78473 3.17049 6.33499 3.39964L7.24297 5.18166C7.36366 5.12016 7.54679 5.0643 7.92985 5.03301C8.32451 5.00078 8.83695 5 9.60018 5V3ZM6.51491 5.91005C6.67483 5.59618 6.92963 5.34131 7.24297 5.18166L6.33499 3.39964C5.6448 3.75131 5.0843 4.3124 4.73289 5.00206L6.51491 5.91005ZM16.8219 26.5972C16.5436 26.7232 16.49 26.7471 16.2825 26.7827L16.6209 28.7539C17.0874 28.6738 17.3296 28.5627 17.6467 28.4192L16.8219 26.5972ZM14.3528 28.4192C14.6714 28.5634 14.9142 28.6739 15.3799 28.7539L15.7183 26.7827C15.51 26.7469 15.4544 26.7225 15.1775 26.5972L14.3528 28.4192ZM16.2825 26.7827C16.2849 26.7823 16.2781 26.7835 16.26 26.7853C16.2428 26.7871 16.2202 26.7889 16.1925 26.7905C16.1367 26.7938 16.0701 26.7957 16.0004 26.7957C15.9307 26.7957 15.8641 26.7938 15.8083 26.7905C15.7806 26.7889 15.758 26.7871 15.7408 26.7853C15.7227 26.7835 15.7159 26.7823 15.7183 26.7827L15.3799 28.7539C15.5716 28.7868 15.8123 28.7957 16.0004 28.7957C16.1885 28.7957 16.4292 28.7868 16.6209 28.7539L16.2825 26.7827ZM27.6666 8.2666C27.6666 7.53647 27.6674 6.92866 27.6271 6.43391C27.5858 5.92746 27.4964 5.45185 27.2672 5.00206L25.4852 5.91005C25.5467 6.03069 25.6025 6.21362 25.6337 6.59647C25.6659 6.99101 25.6666 7.50326 25.6666 8.2666H27.6666ZM22.4002 5C23.1634 5 23.6756 5.00078 24.0699 5.03301C24.4525 5.06428 24.6355 5.1201 24.7563 5.18166L25.6643 3.39964C25.2147 3.17055 24.7393 3.08105 24.2328 3.03965C23.7381 2.99922 23.1304 3 22.4002 3V5ZM27.2672 5.00206C26.9155 4.31173 26.3538 3.75097 25.6643 3.39964L24.7563 5.18166C25.0703 5.34165 25.3256 5.59685 25.4852 5.91005L27.2672 5.00206ZM19.2928 11.2929L13.9595 16.6262L15.3737 18.0404L20.707 12.7071L19.2928 11.2929ZM15.3737 16.6262L12.707 13.9596L11.2928 15.3738L13.9595 18.0404L15.3737 16.6262Z" fill="#18181B"/>
</svg>
