<svg xmlns="http://www.w3.org/2000/svg" aria-hidden="true" style="position:absolute;width:0;height:0;overflow:hidden"><defs><symbol id="icon-Call" viewBox="0 0 32 32"><path fill="#52525b" d="M12.671 5.676zm1.405 3.514zm-.427 2.698zm-.756.908zm.162 3.593zm2.556 2.556zm3.593.163zm.908-.757zm2.698-.427zm3.513 1.406zM28 21.805zm0 3.669zM10.195 5c.682 0 1.294.415 1.547 1.048l1.857-.743A3.667 3.667 0 0 0 10.195 3v2zm1.547 1.048 1.406 3.514 1.857-.743-1.406-3.514-1.857.743zm1.406 3.514a1.667 1.667 0 0 1-.267 1.686l1.536 1.28a3.665 3.665 0 0 0 .587-3.709l-1.857.743zm-.267 1.686-.757.908 1.536 1.28.757-.908-1.536-1.28zm-.757.908a3.667 3.667 0 0 0 .224 4.94l1.414-1.414a1.668 1.668 0 0 1-.101-2.246l-1.536-1.28zm.224 4.94 2.556 2.556 1.414-1.414-2.556-2.556-1.414 1.414zm2.556 2.556a3.667 3.667 0 0 0 4.94.224l-1.28-1.536a1.665 1.665 0 0 1-2.245-.102l-1.414 1.414zm4.94.224.908-.757-1.28-1.537-.908.757 1.28 1.537zm.908-.757a1.667 1.667 0 0 1 1.686-.267l.743-1.857a3.665 3.665 0 0 0-3.709.588l1.28 1.536zm1.686-.267 3.514 1.406.743-1.857-3.514-1.406-.743 1.857zm3.514 1.406A1.666 1.666 0 0 1 27 21.805h2a3.666 3.666 0 0 0-2.305-3.404l-.743 1.857zM27 21.805v3.668h2v-3.668h-2zm0 3.669c0 .843-.683 1.526-1.526 1.526v2A3.526 3.526 0 0 0 29 25.474h-2zM25.474 27C14.167 27 5 17.834 5 6.526H3C3 18.938 13.062 29 25.474 29v-2zM5 6.526C5 5.683 5.683 5 6.526 5V3A3.526 3.526 0 0 0 3 6.526h2zM6.526 5h3.668V3H6.526v2z" style="fill:var(--color1, #52525b)"/></symbol><symbol id="icon-Date" viewBox="0 0 32 32"><path fill="#52525b" d="M5.333 9.667a1 1 0 0 0 0 2v-2zm21.334 2a1 1 0 0 0 0-2v2zM6.789 26.376zm-1.165-1.165zm20.752 0zm-1.166 1.165zm0-20.752zm1.166 1.165zM6.789 5.624zM5.624 6.789zm15.083 9.918a1 1 0 0 0-1.414-1.414l1.414 1.414zm-6.04 4.626-.707.707a1 1 0 0 0 1.414 0l-.707-.707zm-1.96-3.373a1 1 0 0 0-1.414 1.414l1.414-1.414zm9.626-15.293a1 1 0 0 0-2 0h2zm-2 2.666a1 1 0 0 0 2 0h-2zm-8.666-2.666a1 1 0 0 0-2 0h2zm-2 2.666a1 1 0 0 0 2 0h-2zm-4.334 6.334h21.333v-2H5.333v2zM9.6 6.333h12.8v-2H9.6v2zM25.667 9.6v12.8h2V9.6h-2zM22.4 25.667H9.6v2h12.8v-2zM6.333 22.4V9.6h-2v12.8h2zM9.6 25.667c-.763 0-1.276-.001-1.67-.033-.383-.031-.566-.087-.687-.149l-.908 1.782c.45.229.925.319 1.432.36.495.04 1.103.04 1.833.04v-2zM4.333 22.4c0 .73-.001 1.338.04 1.833.041.507.131.982.36 1.432l1.782-.908c-.061-.121-.117-.304-.149-.687-.032-.395-.033-.907-.033-1.67h-2zm2.91 3.085a1.673 1.673 0 0 1-.728-.728l-1.782.908c.351.69.912 1.251 1.602 1.602l.908-1.782zM25.667 22.4c0 .763-.001 1.276-.033 1.67-.031.383-.087.566-.149.687l1.782.908c.229-.45.319-.925.36-1.432.04-.495.039-1.103.039-1.833h-2zM22.4 27.667c.73 0 1.338.001 1.833-.04.506-.041.982-.131 1.431-.36l-.908-1.782c-.121.062-.304.117-.686.149-.394.032-.907.033-1.67.033v2zm3.085-2.91a1.665 1.665 0 0 1-.729.728l.908 1.782a3.671 3.671 0 0 0 1.603-1.602l-1.782-.908zM22.4 6.333c.763 0 1.275.001 1.67.033.383.031.566.087.686.149l.908-1.782c-.45-.229-.925-.319-1.431-.36-.495-.04-1.102-.04-1.833-.04v2zM27.667 9.6c0-.73.001-1.338-.039-1.833-.041-.506-.131-.982-.36-1.432l-1.782.908c.062.121.117.304.149.686.032.395.033.907.033 1.67h2zm-2.911-3.085c.314.16.569.415.729.728l1.782-.908a3.666 3.666 0 0 0-1.603-1.602l-.908 1.782zM9.6 4.333c-.73 0-1.338-.001-1.833.04-.507.041-.982.131-1.432.36l.908 1.782c.121-.061.304-.117.687-.149.395-.032.907-.033 1.67-.033v-2zM6.333 9.6c0-.763.001-1.275.033-1.67.031-.383.087-.566.149-.687l-1.782-.908c-.229.45-.319.925-.36 1.432-.04.495-.04 1.103-.04 1.833h2zm.002-4.867a3.669 3.669 0 0 0-1.602 1.602l1.782.908c.16-.314.415-.569.728-.728l-.908-1.782zm12.958 10.56-5.333 5.333 1.414 1.414 5.333-5.333-1.414-1.414zm-3.919 5.333-2.667-2.667-1.414 1.414 2.667 2.667 1.414-1.414zm4.959-17.959v2.667h2V2.667h-2zm-10.666 0v2.667h2V2.667h-2z" style="fill:var(--color1, #52525b)"/></symbol><symbol id="icon-Doctor-Consult" viewBox="0 0 32 32"><path fill="#52525b" d="M22.4 26.667zm-12.8 0zM26.667 22.4zm-.291 2.811zm-1.166 1.165zm0-20.752zM26.667 9.6zm-.291-2.811zm-20.752 0zm1.165-1.165zM5.624 25.211zm1.165 1.165zM10.667 15a1 1 0 0 0 0 2v-2zm10.666 2a1 1 0 0 0 0-2v2zM15 21.333a1 1 0 0 0 2 0h-2zm2-10.666a1 1 0 0 0-2 0h2zM6.333 22.4V9.6h-2v12.8h2zM9.6 6.333h12.8v-2H9.6v2zm12.8 19.334H9.6v2h12.8v-2zm3.267-3.267c0 .763-.001 1.276-.033 1.67-.031.383-.087.566-.149.687l1.782.908c.229-.45.319-.925.36-1.432.04-.495.04-1.103.04-1.833h-2zM22.4 27.667c.73 0 1.338.001 1.833-.04.506-.041.982-.131 1.431-.36l-.908-1.782c-.121.062-.304.117-.686.149-.394.032-.907.033-1.67.033v2zm3.085-2.91a1.67 1.67 0 0 1-.729.728l.908 1.782a3.671 3.671 0 0 0 1.603-1.602l-1.782-.908zM22.4 6.333c.763 0 1.275.001 1.67.033.383.031.566.087.686.149l.908-1.782c-.45-.229-.925-.319-1.431-.36-.495-.04-1.102-.04-1.833-.04v2zM27.667 9.6c0-.73.001-1.338-.04-1.833-.041-.507-.131-.982-.36-1.432l-1.782.908c.062.121.117.304.149.687.032.395.033.907.033 1.67h2zm-2.911-3.085c.314.16.569.415.729.728l1.782-.908a3.666 3.666 0 0 0-1.603-1.602l-.908 1.782zM6.333 9.6c0-.763.001-1.276.033-1.67.031-.383.087-.566.149-.687l-1.782-.908c-.229.45-.319.925-.36 1.432-.04.495-.04 1.103-.04 1.833h2zM9.6 4.333c-.73 0-1.338-.001-1.833.04-.507.041-.982.131-1.432.36l.908 1.782c.121-.061.304-.117.687-.149.395-.032.907-.033 1.67-.033v-2zm-3.085 2.91c.16-.314.415-.569.728-.728l-.908-1.782a3.669 3.669 0 0 0-1.602 1.602l1.782.908zM4.333 22.4c0 .73-.001 1.338.04 1.833.041.507.131.982.36 1.432l1.782-.908c-.062-.121-.117-.304-.149-.687-.032-.394-.033-.907-.033-1.67h-2zM9.6 25.667c-.763 0-1.276-.001-1.67-.033-.383-.031-.566-.087-.687-.149l-.908 1.782c.45.229.925.319 1.432.36.495.04 1.103.04 1.833.04v-2zm-4.867-.002c.351.69.912 1.251 1.602 1.602l.908-1.782a1.673 1.673 0 0 1-.728-.728l-1.782.908zM25.667 9.6v12.8h2V9.6h-2zm-15 7.4h10.667v-2H10.667v2zM17 21.333V10.666h-2v10.667h2z" style="fill:var(--color1, #52525b)"/></symbol><symbol id="icon-Shield" viewBox="0 0 32 32"><path d="M17.234 27.508zm-2.469 0zM5.624 5.456zm1.165-1.165zm9.663 23.477zm-.903 0zM26.376 5.456zM25.21 4.291zm-4.503 8.416a1 1 0 0 0-1.414-1.414l1.414 1.414zm-6.04 4.626-.707.707a1 1 0 0 0 1.414 0l-.707-.707zm-1.96-3.373a.999.999 0 1 0-1.414 1.414l1.414-1.414zm12.96-5.693v5.287h2V8.267h-2zm0 5.286c0 8.145-6.137 11.819-8.845 13.044l.825 1.822c2.909-1.317 10.02-5.496 10.02-14.866h-2zM15.178 26.597c-2.707-1.225-8.844-4.899-8.844-13.044h-2c0 9.37 7.11 13.549 10.02 14.866l.825-1.822zM6.333 13.553V8.266h-2v5.287h2zM9.6 5h12.8V3H9.6v2zM6.333 8.267c0-.763.001-1.276.033-1.67.031-.383.087-.566.149-.687l-1.782-.908c-.229.45-.319.925-.36 1.432-.04.495-.04 1.103-.04 1.833h2zM9.6 3c-.73 0-1.338-.001-1.833.04-.507.041-.982.131-1.432.36l.908 1.782c.121-.061.304-.117.687-.149C8.325 5.001 8.837 5 9.6 5V3zM6.515 5.91c.16-.314.415-.569.728-.728L6.335 3.4a3.669 3.669 0 0 0-1.602 1.602l1.782.908zm10.307 20.687c-.278.126-.332.15-.539.186l.338 1.971c.466-.08.709-.191 1.026-.335l-.825-1.822zm-2.469 1.822c.319.144.561.255 1.027.335l.338-1.971c-.208-.036-.264-.06-.541-.186l-.825 1.822zm1.929-1.636-.023.003a3.646 3.646 0 0 1-.451.005l-.068-.005a.172.172 0 0 1-.023-.003l-.338 1.971c.192.033.432.042.621.042s.429-.009.62-.042l-.338-1.971zM27.667 8.267c0-.73.001-1.338-.04-1.833-.041-.506-.131-.982-.36-1.432l-1.782.908c.061.121.117.304.148.686.032.395.033.907.033 1.67h2zM22.4 5c.763 0 1.275.001 1.67.033.383.031.566.087.686.149l.908-1.782c-.45-.229-.925-.319-1.431-.36C23.738 3 23.131 3 22.4 3v2zm4.867.002A3.666 3.666 0 0 0 25.664 3.4l-.908 1.782c.314.16.569.415.729.728l1.782-.908zm-7.974 6.291-5.333 5.333 1.414 1.414 5.333-5.333-1.414-1.414zm-3.919 5.333-2.667-2.667-1.414 1.414 2.667 2.667 1.414-1.414z"/></symbol></defs></svg>